<svg xmlns="http://www.w3.org/2000/svg" viewBox="0 0 1200 360" role="img" aria-labelledby="brand-title brand-desc"><title id="brand-title">Product Pro Max Skills dark hero</title><desc id="brand-desc">Dark Signal Protocol banner with rising Signal Path, wordmark, and From vibe to viable.</desc><rect width="1200" height="360" fill="#0B100F"/><path d="M0 4 H1200" stroke="#A3FF47" stroke-width="8"/><path d="M870 305 H1145 M870 269 H1145 M870 233 H1145" stroke="#A6C1B0" stroke-width="1" opacity=".55"/><path d="M905 305 L982 237 L1040 261 L1132 127" stroke="#A3FF47" stroke-width="4" fill="none" opacity=".62"/><g transform="translate(68 80) scale(2.7)" fill="none" stroke-linecap="square" stroke-linejoin="bevel"><path d="M7 47 L22 32 L34 37 L52 12" stroke="#A3FF47" stroke-width="3.4"/><rect x="4" y="44" width="6" height="6" fill="#0B100F" stroke="#A3FF47" stroke-width="2"/><circle cx="22" cy="32" r="4.5" fill="#A3FF47"/><rect x="30" y="33" width="8" height="8" fill="#0B100F" stroke="#A3FF47" stroke-width="2"/><circle cx="52" cy="12" r="6" stroke="#A3FF47" stroke-width="2"/><path d="M13 54 H46" stroke="#A3FF47" opacity=".42"/></g><text x="268" y="155" fill="#F2F6F3" font-family="Segoe UI, Arial, sans-serif" font-size="63" font-weight="740" letter-spacing="-2">Product Pro Max</text><text x="272" y="204" fill="#A3FF47" font-family="Segoe UI, Arial, sans-serif" font-size="24" font-weight="680" letter-spacing="9">SKILLS</text><text x="272" y="266" fill="#C7D6CA" font-family="Segoe UI, Arial, sans-serif" font-size="24">From vibe to viable.</text><rect x="268" y="287" width="490" height="2" fill="#A6C1B0"/></svg>
